HIERARCHY
ROOT RootJoint
{
    OFFSET   0.000000   0.000000   0.000000
    CHANNELS 6 Xposition Yposition Zposition Xrotation Yrotation Zrotation
    JOINT pelvis_lowerback
    {
        OFFSET   0.000000   0.093605   0.000000
        CHANNELS 3 Xrotation Yrotation Zrotation
        JOINT lowerback_torso
        {
            OFFSET   0.000000   0.100000   0.000000
            CHANNELS 3 Xrotation Yrotation Zrotation
            JOINT torso_head
            {
                OFFSET   0.000000   0.282350   0.000000
                CHANNELS 3 Xrotation Yrotation Zrotation
                End Site
                {
                    OFFSET   0.000000   0.192650   0.000000
                }
            }
            JOINT rTorso_Clavicle
            {
                OFFSET  -0.001000   0.157500   0.000000
                CHANNELS 3 Xrotation Yrotation Zrotation
                JOINT rShoulder
                {
                    OFFSET  -0.117647   0.000000   0.000000
                    CHANNELS 3 Xrotation Yrotation Zrotation
                    JOINT rElbow
                    {
                        OFFSET  -0.245000   0.000000   0.000000
                        CHANNELS 3 Xrotation Yrotation Zrotation
                        JOINT rWrist
                        {
                            OFFSET  -0.240000   0.000000   0.000000
                            CHANNELS 3 Xrotation Yrotation Zrotation
                            End Site
                            {
                                OFFSET  -0.116353  -0.002500   0.000000
                            }
                        }
                    }
                }
            }
            JOINT lTorso_Clavicle
            {
                OFFSET   0.001000   0.157500   0.000000
                CHANNELS 3 Xrotation Yrotation Zrotation
                JOINT lShoulder
                {
                    OFFSET   0.117647   0.000000   0.000000
                    CHANNELS 3 Xrotation Yrotation Zrotation
                    JOINT lElbow
                    {
                        OFFSET   0.245000   0.000000   0.000000
                        CHANNELS 3 Xrotation Yrotation Zrotation
                        JOINT lWrist
                        {
                            OFFSET   0.240000   0.000000   0.000000
                            CHANNELS 3 Xrotation Yrotation Zrotation
                            End Site
                            {
                                OFFSET   0.116353  -0.002500   0.000000
                            }
                        }
                    }
                }
            }
        }
    }
    JOINT rHip
    {
        OFFSET  -0.100000  -0.051395   0.000000
        CHANNELS 3 Xrotation Yrotation Zrotation
        JOINT rKnee
        {
            OFFSET   0.000000  -0.410000   0.000000
            CHANNELS 3 Xrotation Yrotation Zrotation
            JOINT rAnkle
            {
                OFFSET   0.000000  -0.390000   0.000000
                CHANNELS 3 Xrotation Yrotation Zrotation
                JOINT rToeJoint
                {
                    OFFSET   0.000000  -0.050000   0.130000
                    CHANNELS 3 Xrotation Yrotation Zrotation
                    End Site
                    {
                        OFFSET  -0.010000   0.002000   0.060000
                    }
                }
            }
        }
    }
    JOINT lHip
    {
        OFFSET   0.100000  -0.051395   0.000000
        CHANNELS 3 Xrotation Yrotation Zrotation
        JOINT lKnee
        {
            OFFSET   0.000000  -0.410000   0.000000
            CHANNELS 3 Xrotation Yrotation Zrotation
            JOINT lAnkle
            {
                OFFSET   0.000000  -0.390000   0.000000
                CHANNELS 3 Xrotation Yrotation Zrotation
                JOINT lToeJoint
                {
                    OFFSET   0.000000  -0.050000   0.130000
                    CHANNELS 3 Xrotation Yrotation Zrotation
                    End Site
                    {
                        OFFSET   0.010000   0.002000   0.060000
                    }
                }
            }
        }
    }
}
MOTION
Frames: 12
Frame Time:   0.008333
 -3.642407   0.905359   4.436812  18.866727  79.282103 -23.897230   5.315285   1.141545  -0.095258  -5.249082  -2.742178   2.902351  -2.293525  -0.337842   1.439313  -2.303384  -4.108861   2.111356 -19.971044  -1.713856  13.855355  -0.089841  66.030350   0.070516   3.957280   4.730011 -25.825846  -3.281060   0.774568  -0.306969 -15.271222  -3.064338 -22.043425  -0.041779 -75.660207  -0.034818   4.177609  -7.384836  24.321080  -9.975971  -3.245342   5.462603  15.660545  -0.000215  -0.000293  -8.465504 -12.243614  -0.092568  -0.799695  -0.000006  -0.000000  -7.818121  -0.280163  10.340514  26.046996  -0.003617  -0.002362 -19.480153   5.852294   3.813347  -4.906348  -0.000130  -0.001449
 -3.644120   0.905531   4.435156  19.135034  79.349882 -24.140746   5.221227   1.013475  -0.147236  -5.299147  -2.769551   2.811718  -2.282858  -0.328586   1.445218  -2.517057  -4.115514   1.947417 -20.476586  -1.642848  13.437695  -0.088348  66.693856   0.069895   3.985680   4.779640 -25.654821  -3.400283   0.607821  -0.228287 -15.778880  -3.144676 -21.615777  -0.038190 -75.843383  -0.032170   4.109624  -7.458138  24.197392 -10.088420  -3.318285   5.328696  15.568824  -0.000247  -0.000224  -8.269574 -12.244283   0.043632  -0.789759  -0.000008  -0.000000  -7.650984  -0.248235  10.245472  25.404250  -0.003381  -0.002152 -19.626988   5.710575   3.761919  -4.320984   0.000826  -0.001261
 -3.645853   0.905677   4.433449  19.356804  79.396028 -24.347766   5.144452   0.892889  -0.189809  -5.345830  -2.794131   2.727742  -2.267712  -0.320243   1.454919  -2.730389  -4.116462   1.765140 -20.962007  -1.562931  13.028715  -0.086064  67.317961   0.068366   4.019765   4.841904 -25.536505  -3.528051   0.449141  -0.140367 -16.268396  -3.223362 -21.203038  -0.034738 -76.009729  -0.029514   4.032162  -7.500233  24.146630 -10.205028  -3.379471   5.203720  15.477617  -0.000273  -0.000162  -8.067977 -12.235037   0.180584  -0.780290  -0.000010  -0.000000  -7.506258  -0.218172  10.157133  24.810197  -0.003139  -0.001866 -19.759859   5.576486   3.712823  -3.785040   0.001495  -0.001185
 -3.647570   0.905799   4.431708  19.528415  79.428922 -24.511964   5.078274   0.778139  -0.228420  -5.386789  -2.818413   2.649073  -2.251065  -0.312582   1.465348  -2.934870  -4.115713   1.577770 -21.420172  -1.480657  12.636965  -0.082950  67.902749   0.066016   4.058366   4.912883 -25.449327  -3.652937   0.299123  -0.046815 -16.730362  -3.302142 -20.811025  -0.031501 -76.165661  -0.026954   3.957010  -7.537291  24.124802 -10.320013  -3.431071   5.085088  15.388968  -0.000293  -0.000108  -7.865092 -12.220453   0.315129  -0.771925  -0.000010  -0.000000  -7.373615  -0.190676  10.072639  24.254292  -0.002911  -0.001557 -19.882115   5.450784   3.666499  -3.293583   0.001945  -0.001156
 -3.649257   0.905898   4.429939  19.652772  79.453211 -24.635426   5.019759   0.668009  -0.264716  -5.422823  -2.843560   2.574839  -2.234059  -0.305501   1.475550  -3.128080  -4.115343   1.393683 -21.849878  -1.399579  12.266060  -0.079171  68.449705   0.063059   4.098814   4.987180 -25.379517  -3.771908   0.157693   0.046974 -17.163638  -3.380115 -20.441831  -0.028483 -76.312119  -0.024525   3.886639  -7.575814  24.113660 -10.431410  -3.475164   4.972001  15.304449  -0.000307  -0.000064  -7.663418 -12.202711   0.446121  -0.764860  -0.000010  -0.000000  -7.250451  -0.165128   9.991501  23.734094  -0.002703  -0.001261 -19.996900   5.333088   3.622569  -2.842984   0.002228  -0.001138
 -3.650905   0.905973   4.428148  19.732052  79.471425 -24.719808   4.967275   0.561928  -0.299554  -5.454683  -2.869945   2.504584  -2.217316  -0.298943   1.485193  -3.309238  -4.116328   1.217579 -22.251469  -1.321672  11.917406  -0.074912  68.960704   0.059686   4.139291   5.061235 -25.320016  -3.883785   0.024705   0.137511 -17.568697  -3.456308 -20.096046  -0.025680 -76.449483  -0.022242   3.820797  -7.615963  24.106318 -10.538302  -3.512990   4.863962  15.224946  -0.000314  -0.000029  -7.464317 -12.182924   0.573032  -0.759175  -0.000009  -0.000000  -7.135363  -0.141118   9.913456  23.248117  -0.002514  -0.000992 -20.106776   5.222975   3.580667  -2.429866   0.002388  -0.001116
 -3.652512   0.906025   4.426337  19.768676  79.485113 -24.767009   4.919771   0.459614  -0.333479  -5.482929  -2.897571   2.437972  -2.201175  -0.292868   1.494151  -3.478295  -4.119102   1.051901 -22.625965  -1.248016  11.591166  -0.070346  69.437763   0.056055   4.178728   5.132976 -25.266873  -3.988145  -0.100048   0.222836 -17.946609  -3.529975 -19.773362  -0.023089 -76.578102  -0.020114   3.758787  -7.656729  24.099698 -10.640277  -3.545384   4.760467  15.150800  -0.000316  -0.000001  -7.268482 -12.161739   0.695669  -0.754886  -0.000008  -0.000000  -7.027390  -0.118420   9.838184  22.794794  -0.002344  -0.000753 -20.213636   5.119992   3.540471  -2.051120   0.002457  -0.001085
 -3.653887   0.906435   4.424468  19.308105  79.468692 -24.153840   4.905342   0.354771  -0.492260  -5.471998  -2.908306   2.298880  -2.179888  -0.294448   1.507578  -3.661587  -4.078319   0.937068 -23.057476  -1.132554  11.264929  -0.064607  69.795701   0.051700   4.205280   5.234381 -25.080915  -4.104363  -0.197959   0.230413 -18.490113  -3.542651 -19.412417  -0.018953 -76.595974  -0.016557   3.670281  -7.753269  23.953902 -10.639000  -3.530573   4.481456  15.017349  -0.000377   0.000103  -7.051891 -12.086102   0.809010  -0.716379  -0.000005  -0.000000  -7.019043  -0.021205   9.571993  22.670650  -0.002002  -0.000598 -19.972529   5.085004   3.485392  -1.684237   0.002484  -0.000885
 -3.655042   0.906810   4.422645  18.780172  79.431237 -23.492285   4.867112   0.260908  -0.606951  -5.465258  -2.907821   2.153682  -2.154973  -0.297401   1.516225  -3.843177  -4.031458   0.783805 -23.470520  -1.010274  10.938636  -0.059483  70.124866   0.047758   4.214292   5.299326 -24.902375  -4.221769  -0.277655   0.246905 -19.006032  -3.547097 -19.067998  -0.015425 -76.605570  -0.013500   3.560192  -7.793877  23.869196 -10.616389  -3.495244   4.227639  14.878464  -0.000429   0.000190  -6.854982 -11.995777   0.911428  -0.630152   0.000005   0.000011  -6.979990   0.090316   9.325753  22.535889  -0.001736  -0.000460 -19.752375   5.057563   3.438823  -1.335780   0.002457  -0.000739
 -3.656032   0.907141   4.420873  18.217280  79.354535 -22.809499   4.811026   0.186597  -0.704233  -5.474867  -2.894775   2.017727  -2.132252  -0.300158   1.526326  -4.019908  -3.983009   0.615100 -23.862892  -0.885360  10.620471  -0.054926  70.433526   0.044245   4.223171   5.361109 -24.749415  -4.335231  -0.342435   0.271862 -19.490907  -3.549051 -18.738748  -0.012559 -76.613704  -0.011011   3.448570  -7.817893  23.817923 -10.596721  -3.449024   3.992651  14.749048  -0.000456   0.000279  -6.669722 -11.899719   1.006147  -0.543517   0.000018   0.000005  -6.920137   0.162195   9.080822  22.401726  -0.001505  -0.000257 -19.551540   4.987037   3.390945  -1.015796   0.002443  -0.000964
 -3.656885   0.907431   4.419171  17.661478  79.264046 -22.148505   4.744222   0.119256  -0.789533  -5.496953  -2.879115   1.893166  -2.112339  -0.302919   1.537588  -4.189142  -3.936540   0.444013 -24.232970  -0.762759  10.316047  -0.050756  70.723075   0.041026   4.234383   5.425652 -24.620415  -4.444470  -0.398639   0.303170 -19.946396  -3.551781 -18.425509  -0.010249 -76.621401  -0.009003   3.340662  -7.837905  23.786669 -10.575606  -3.397583   3.778248  14.628194  -0.000467   0.000345  -6.498677 -11.800094   1.094000  -0.456413   0.000029   0.000001  -6.853555   0.223146   8.851273  22.275212  -0.001305  -0.000077 -19.364491   4.918402   3.349116  -0.723100   0.002372  -0.001168
 -3.657615   0.907683   4.417541  17.125654  79.170286 -21.519957   4.670421   0.055292  -0.865988  -5.527780  -2.864935   1.778741  -2.094946  -0.305644   1.549025  -4.349404  -3.893757   0.277194 -24.580278  -0.645219  10.027857  -0.046858  70.994215   0.038009   4.247150   5.491600 -24.509485  -4.548976  -0.449532   0.337977 -20.373800  -3.556437 -18.129291  -0.008393 -76.629069  -0.007388   3.237934  -7.858161  23.768156 -10.552159  -3.345211   3.581231  14.516929  -0.000463   0.000385  -6.340163 -11.702030   1.175479  -0.381220   0.000038  -0.000002  -6.783896   0.278574   8.637648  22.157690  -0.001133   0.000062 -19.189637   4.853505   3.311367  -0.454771   0.002259  -0.001305
